<?xml version="1.0" encoding="utf-8"?>
<!-- Generator: Adobe Illustrator 22.1.0, SVG Export Plug-In . SVG Version: 6.00 Build 0)  -->
<svg version="1.1" id="Calque_1" xmlns="http://www.w3.org/2000/svg" xmlns:xlink="http://www.w3.org/1999/xlink" x="0px" y="0px"
	 viewBox="0 0 330 330" style="enable-background:new 0 0 330 330;" xml:space="preserve">
<style type="text/css">
	.st0{fill:#D33E40;}
	.st1{fill:#FEFEFE;}
</style>
<g>
	<path class="st0" d="M165,322C78.2,321.8,8.3,251.7,8.6,165.3C8.9,78.7,79.2,8.6,165.4,9C252.2,9.4,322,79.6,321.6,166.1
		C321.3,252.4,251.1,322.3,165,322z M88.7,148.4c0.2,8.6,0.5,19.4,0.8,30.1c0.4,15.5,0.8,31,1.1,46.5c0,1.5,0.5,2.8,1.5,4
		c1.8,2.1,3.8,3.9,6.1,5.5c12.9,9.5,27.1,16.2,42.5,20.5c11.9,3.3,24,4.5,36.3,2.4c18.5-3.1,35.5-10.1,51.3-20.2
		c3.6-2.3,7-4.8,9.8-8c0.9-1.1,1.5-2.3,1.5-3.8c0.1-4.9,0.3-9.9,0.4-14.8c0.4-16.9,0.9-33.8,1.3-50.7c0.4-15.7,0.7-31.3,1.1-47
		c0.1-5,0.3-10,0.4-15c0.3-10,0.6-20,0.7-30c0.1-6.8-4.7-12.5-11.3-14.1c-2.9-0.7-5.9-0.6-8.8-0.9c-7.8-0.6-15.6-1.2-23.4-1.7
		c-11-0.8-22-1.6-33-1.8s-21.9,0.7-32.8,1.5c-11.2,0.8-22.5,1.6-33.7,2.5c-8.6,0.7-14,6.9-13.8,15.6c0.1,6.5,0.4,13,0.5,19.5
		C87.7,107.7,88.2,127,88.7,148.4z M90.3,258.5c-0.2,2.3,0.2,4.3,0.8,6.3c2.9,9.9,11.8,16.5,22.5,16.5c25.3,0,50.6,0,75.9,0
		c10.5,0,21.1,0.1,31.6,0c10.4-0.1,19.3-7.2,21.9-17.2c0.5-1.8,0.8-3.6,0.7-5.5c-2.7,0-5.3,0-7.8,0c-0.2,1.2-0.3,2.4-0.6,3.5
		c-1.8,6.9-7.6,11.2-15.2,11.2c-35.3,0-70.7,0-106,0c-0.4,0-0.9,0-1.3,0c-6.9-0.2-12.6-5-14.1-11.8c-0.2-1-0.3-2-0.5-3
		C95.4,258.5,92.9,258.5,90.3,258.5z"/>
	<path class="st1" d="M88.7,148.4c-0.5-21.4-1-40.6-1.5-59.9C87,82,86.8,75.5,86.7,69c-0.2-8.6,5.3-14.8,13.8-15.6
		c11.2-1,22.5-1.7,33.7-2.5c10.9-0.8,21.8-1.7,32.8-1.5s22,1,33,1.8c7.8,0.6,15.6,1.1,23.4,1.7c2.9,0.2,5.9,0.2,8.8,0.9
		c6.6,1.6,11.3,7.3,11.3,14.1c-0.1,10-0.5,20-0.7,30c-0.1,5-0.3,10-0.4,15c-0.4,15.7-0.7,31.3-1.1,47c-0.4,16.9-0.9,33.8-1.3,50.7
		c-0.1,4.9-0.3,9.9-0.4,14.8c0,1.5-0.6,2.7-1.5,3.8c-2.8,3.2-6.2,5.8-9.8,8c-15.8,10.1-32.8,17.1-51.3,20.2
		c-12.3,2.1-24.4,0.9-36.3-2.4c-15.4-4.3-29.6-11-42.5-20.5c-2.2-1.6-4.3-3.4-6.1-5.5c-1-1.1-1.5-2.4-1.5-4
		c-0.3-15.5-0.7-31-1.1-46.5C89.3,167.7,88.9,157,88.7,148.4z M100.8,83.9c0.1,2,0.2,4.1,0.3,6.1c0.5,12.4,1.1,24.9,1.6,37.3
		c0.7,16.3,1.4,32.5,2,48.8c0.3,6.7,5.3,12.5,11.9,13.8c2.8,0.6,5.4-0.1,8.2-0.4c9-0.9,17.9-1.9,26.9-2.7c5-0.5,10.1-1,15.1-0.7
		c4,0.2,8,0.5,12,0.8c10.1,0.8,20.2,1.9,30.3,3.1c7.6,0.9,14.9-4.3,16.2-11.9c0.4-2.2,0.3-4.5,0.4-6.7c0.7-16.9,1.5-33.8,2.2-50.7
		c0.3-6.3,0.6-12.7,0.8-19c0.3-7,0.7-14.1,0.7-21.1c0-7.2-6.3-13.3-13.4-13.9c-6.2-0.5-12.3-1.1-18.4-1.7
		c-8.8-0.9-17.6-1.6-26.5-2.1c-11.8-0.7-23.6,0.8-35.3,1.8c-7,0.6-14,1.4-21,2c-3.6,0.3-6.7,1.5-9.3,3.9
		C101.6,74.2,100.3,78.7,100.8,83.9z M229.2,216.8c0-6.7-5.3-12-11.9-12.1c-6.5-0.1-12,5.4-12,12s5.3,12,11.9,12.1
		C223.8,228.8,229.2,223.4,229.2,216.8z M103.1,216.8c0,6.6,5.4,12,12,12s11.9-5.4,11.9-12s-5.4-12-12-12
		C108.4,204.7,103,210.1,103.1,216.8z"/>
	<path class="st1" d="M90.3,258.5c2.7,0,5.2,0,7.8,0c0.1,1,0.2,2,0.5,3c1.4,6.8,7.2,11.6,14.1,11.8c0.4,0,0.9,0,1.3,0
		c35.3,0,70.7,0,106,0c7.6,0,13.4-4.3,15.2-11.2c0.3-1.1,0.4-2.3,0.6-3.5c2.5,0,5.1,0,7.8,0c0.1,1.9-0.2,3.7-0.7,5.5
		c-2.5,10-11.5,17.1-21.9,17.2c-10.5,0.1-21.1,0-31.6,0c-25.3,0-50.6,0-75.9,0c-10.7,0-19.5-6.5-22.5-16.5
		C90.5,262.8,90.1,260.8,90.3,258.5z"/>
	<path class="st0" d="M100.8,83.9c-0.5-5.2,0.8-9.7,4.7-13.3c2.6-2.4,5.7-3.6,9.3-3.9c7-0.6,14-1.4,21-2c11.8-1,23.5-2.5,35.3-1.8
		c8.8,0.5,17.7,1.2,26.5,2.1c6.1,0.6,12.3,1.3,18.4,1.7c7.1,0.5,13.4,6.7,13.4,13.9c0,7-0.4,14.1-0.7,21.1c-0.3,6.3-0.6,12.7-0.8,19
		c-0.7,16.9-1.4,33.8-2.2,50.7c-0.1,2.2,0,4.5-0.4,6.7c-1.3,7.6-8.6,12.8-16.2,11.9c-10.1-1.2-20.1-2.3-30.3-3.1
		c-4-0.3-8-0.6-12-0.8c-5.1-0.3-10.1,0.2-15.1,0.7c-9,0.8-17.9,1.8-26.9,2.7c-2.7,0.3-5.4,0.9-8.2,0.4c-6.6-1.3-11.6-7.1-11.9-13.8
		c-0.7-16.3-1.3-32.5-2-48.8c-0.5-12.4-1.1-24.9-1.6-37.3C101,87.9,100.9,85.9,100.8,83.9z M150.2,102.5c0-1.1-0.4-1.8-1.2-2.1
		c-1-0.4-1.9,0-2.6,0.7c-11.8,11.8-23.6,23.6-35.4,35.4c-1.1,1.1-1.2,2.4-0.3,3.2c0.9,0.9,2.1,0.8,3.3-0.4
		c11.8-11.8,23.5-23.5,35.3-35.3C149.7,103.6,150.2,103.1,150.2,102.5z M114.7,110.6c0.8,0.1,1.3-0.6,1.9-1.1
		c10.7-10.7,21.5-21.5,32.2-32.2c0.3-0.3,0.6-0.6,0.9-0.9c0.6-0.9,0.5-1.9-0.3-2.6c-0.7-0.7-1.6-0.8-2.5-0.2c-0.4,0.3-0.7,0.6-1.1,1
		c-10.7,10.7-21.3,21.3-32,32c-0.3,0.3-0.7,0.7-1,1.1c-0.5,0.7-0.4,1.4,0,2.1C113.2,110.3,113.8,110.6,114.7,110.6z M154.2,98.3
		c0.7,0,1.2-0.4,1.7-0.8c2.9-2.9,5.8-5.8,8.6-8.7c1-1.1,1.1-2.3,0.2-3.1c-0.9-0.9-2.1-0.8-3.1,0.2c-1.4,1.3-2.7,2.7-4.1,4.1
		c-1.6,1.6-3.1,3.1-4.7,4.7c-0.6,0.7-1,1.4-0.5,2.3C152.7,97.8,153.3,98.2,154.2,98.3z M171.4,81.2c0.2-0.1,0.7-0.1,0.9-0.3
		c2.8-2.5,5.5-5.1,7.9-8c0.6-0.7,0.5-1.8-0.3-2.5c-0.8-0.8-1.8-0.9-2.6-0.2c-2.6,2.5-5.2,5.1-7.7,7.7c-0.6,0.6-0.6,1.4-0.2,2.1
		C169.8,80.8,170.4,81.1,171.4,81.2z"/>
	<path class="st0" d="M229.2,216.8c0,6.6-5.4,12-12,12s-11.9-5.4-11.9-12.1c0-6.6,5.5-12,12-12C223.9,204.8,229.2,210.1,229.2,216.8
		z"/>
	<path class="st0" d="M103.1,216.8c0-6.7,5.3-12,11.9-12.1c6.6,0,12,5.4,12,12s-5.3,12-11.9,12C108.5,228.8,103.1,223.4,103.1,216.8
		z"/>
	<path class="st1" d="M150.2,102.5c0,0.6-0.4,1.1-0.9,1.6c-11.8,11.8-23.5,23.5-35.3,35.3c-1.2,1.2-2.3,1.3-3.3,0.4
		c-0.9-0.9-0.9-2.1,0.3-3.2c11.8-11.8,23.6-23.6,35.4-35.4c0.7-0.7,1.6-1.2,2.6-0.7C149.8,100.7,150.2,101.4,150.2,102.5z"/>
	<path class="st1" d="M114.7,110.6c-0.9,0-1.5-0.3-1.9-0.9c-0.4-0.7-0.5-1.4,0-2.1c0.3-0.4,0.6-0.7,1-1.1c10.7-10.7,21.3-21.3,32-32
		c0.3-0.3,0.7-0.7,1.1-1c0.9-0.6,1.8-0.5,2.5,0.2c0.8,0.8,0.9,1.7,0.3,2.6c-0.2,0.4-0.6,0.6-0.9,0.9c-10.7,10.7-21.5,21.5-32.2,32.2
		C116.1,110,115.5,110.7,114.7,110.6z"/>
	<path class="st1" d="M154.2,98.3c-0.9-0.1-1.5-0.5-1.9-1.3c-0.4-0.9-0.1-1.7,0.5-2.3c1.5-1.6,3.1-3.1,4.7-4.7
		c1.4-1.4,2.7-2.8,4.1-4.1c1.1-1,2.3-1.1,3.1-0.2c0.9,0.9,0.8,2.1-0.2,3.1c-2.9,2.9-5.8,5.8-8.6,8.7
		C155.4,97.9,154.9,98.2,154.2,98.3z"/>
	<path class="st1" d="M171.4,81.2c-1-0.1-1.6-0.4-2-1.1s-0.4-1.5,0.2-2.1c2.5-2.6,5.1-5.2,7.7-7.7c0.8-0.7,1.8-0.6,2.6,0.2
		c0.7,0.7,0.9,1.7,0.3,2.5c-2.5,2.8-5.2,5.4-7.9,8C172,81.1,171.6,81.1,171.4,81.2z"/>
</g>
</svg>
